<svg id="visual" viewBox="0 0 125 825" width="125" height="825" xmlns="http://www.w3.org/2000/svg" xmlns:xlink="http://www.w3.org/1999/xlink" version="1.1"><path d="M63 0L58.2 19.7C53.3 39.3 43.7 78.7 38.2 118C32.7 157.3 31.3 196.7 37.5 236C43.7 275.3 57.3 314.7 66.8 353.8C76.3 393 81.7 432 79.2 471.2C76.7 510.3 66.3 549.7 62.3 589C58.3 628.3 60.7 667.7 64.5 707C68.3 746.3 73.7 785.7 76.3 805.3L79 825L0 825L0 805.3C0 785.7 0 746.3 0 707C0 667.7 0 628.3 0 589C0 549.7 0 510.3 0 471.2C0 432 0 393 0 353.8C0 314.7 0 275.3 0 236C0 196.7 0 157.3 0 118C0 78.7 0 39.3 0 19.7L0 0Z" fill="#1F0553" stroke-linecap="round" stroke-linejoin="miter"></path></svg>